<svg width="113" height="160" xmlns="http://www.w3.org/2000/svg">
 <!-- Created with SVG-edit - http://svg-edit.googlecode.com/ -->
 <g>
  <title>Layer 1</title>
  <metadata id="svg_10">image/svg+xml</metadata>
  <g id="svg_15">
   <path d="m56.5867,82.53337c-14.11337,0 -25.56671,-11.52667 -25.56671,-25.74669c0,-14.23332 11.45334,-25.75333 25.56671,-25.75333s25.56665,11.52668 25.56665,25.75333c0,14.21335 -11.45331,25.74669 -25.56665,25.74669m0,-82.53337c-31.25336,0 -56.5867,25.51335 -56.5867,56.99336c0,29.73335 25.62668,68.08669 42.74002,86.76006c6.39331,6.96667 13.84,16.36002 13.84,16.36002s8,-9.44669 14.86002,-16.62003c17.10001,-17.89334 41.72668,-53.82004 41.72668,-86.50005c0,-31.48001 -25.33334,-56.99336 -56.58002,-56.99336" id="svg_5" fill="param(fill) blue"/>
   <rect id="svg_13" height="63" width="67" y="23.5" x="24" stroke-width="0" fill="param(fill) blue"/>
  </g>
 </g>
</svg>