<svg width="80" height="80" xmlns="http://www.w3.org/2000/svg">
 <!-- Created with SVG-edit - http://svg-edit.googlecode.com/ -->
 <title>car</title>
 <g>
  <title>Layer 1</title>
  <metadata id="svg_10">image/svg+xml</metadata>
  <g id="svg_12">
   <g id="svg_8" fill="#000000">
    <path id="svg_9" d="m22.80785,0.13933c-3.59143,-0.13933 -6.68625,1.13408 -8.59479,5.70785l-6.89075,18.90787c-5.02067,1.51696 -7.20642,5.51334 -7.32231,8.79227l0,24.75756l6.62132,0l0,8.33136c-0.32099,7.94031 11.55331,8.24716 11.81902,-0.08274l0.14022,-8.17739l42.95194,0l0.13993,8.17739c0.26571,8.3299 12.15073,8.02305 11.83004,0.08274l0,-8.33136l6.61032,0l0,-24.75756c-0.1156,-3.27893 -2.30139,-7.27531 -7.32201,-8.79227l-6.89106,-18.90787c-1.90855,-4.57377 -5.00337,-5.84718 -8.5945,-5.70785l-34.49737,0l0,0l0,0zm0.78723,6.55864c0.30013,-0.00174 0.61685,0.00929 0.93812,0.02352l31.15429,0.10652c2.85142,-0.07286 4.06059,0 5.27324,2.95441l4.9606,14.65359l-51.67599,-0.07084l4.90668,-14.2638c0.76512,-2.85507 2.34037,-3.39061 4.44305,-3.40339l0,0l0,0l0,0l0,-0.00001zm-10.84866,25.07663c3.08842,0 5.59675,2.73732 5.59675,6.12153c0,3.38451 -2.50833,6.13334 -5.59675,6.13334c-3.08829,0 -5.59663,-2.74883 -5.59663,-6.13334c0,-3.38422 2.50834,-6.12153 5.59663,-6.12153zm54.93257,0c3.08833,0 5.58598,2.73732 5.58598,6.12153c0,3.38451 -2.49766,6.13334 -5.58598,6.13334c-3.08832,0 -5.59665,-2.74883 -5.59665,-6.13334c0,-3.38422 2.50833,-6.12153 5.59665,-6.12153zm-3.84404,-8.06224l0,0z" stroke-miterlimit="4" stroke-width="1.22297" fill-rule="evenodd" fill="param(fill) blue"/>
   </g>
  </g>
 </g>
</svg>