<svg width="580" height="580" xmlns="http://www.w3.org/2000/svg">
 <g>
  <title>Layer 1</title>
  <path fill="#ffffff" stroke="param(outline) #000" stroke-width="5" d="m477.03101,393.39499c-10.33301,0 -20.189,2.05801 -29.203,5.76202c-0.617,-2.134 -1.23901,-4.28702 -1.86401,-6.44702c-3.46399,-11.97098 -6.992,-24.125 -9.96399,-34.05698c-2.92801,-9.78302 -5.63699,-15.80902 -6.52399,-20.14502c-0.69101,-3.379 3.58899,-3.08899 8.09998,-6.84799c3.40601,-2.83801 6.29602,-7.634 7.181,-12.51501c0.73602,-4.29199 -0.17599,-8.604 -2.172,-12.13599c-6.935,-10.59399 -13.69998,-10.39499 -22.651,-10.39499c-11.76999,0 -31.19498,0 -31.19498,0.00098l0.07397,19.11401l29.92801,0.06198c3.57101,0.00702 5.42401,5.02802 -1.55798,6.98102c-3.05801,0.84601 -6.46503,4.48801 -7.604,9.00198c-1.14102,4.51202 -0.28802,9.01401 1.379,13.18301c0.384,0.95898 1.134,3.90399 2.233,8.02798l-135.871,0.68701l-8.02402,-19.642c9.05801,-2.07098 29.84402,-7.056 32.72302,-9.79599c3.418,-3.112 0,-7.797 -2.647,-7.797h-70.912c0.87599,15.642 13.13599,19.04099 19.76999,20.07098l7.84001,19.19101c-0.843,0.69199 -1.563,1.54599 -2.09801,2.539l-22.646,42.05701c-8.93901,-3.634 -18.701,-5.65402 -28.93001,-5.65402c-42.50299,0 -77.08199,34.57901 -77.08199,77.082s34.579,77.082 77.08199,77.082c40.045,0 73.043,-30.69897 76.728,-69.797h2.47501c2.54999,8.74301 9.009,15.98401 17.504,19.96399l-2.60098,6.05301l-13.43301,0.12302c-2.87799,0.026 -5.19,2.38098 -5.164,5.25998c0.026,2.86203 2.354,5.16403 5.211,5.16403c0.01599,0 0.03299,0 0.04901,0l30.15198,-0.276c2.87802,-0.026 5.19,-2.38104 5.164,-5.26001c-0.026,-2.862 -2.35397,-5.164 -5.211,-5.164c-0.01599,0 -0.03198,0 -0.04898,0l-8.56601,0.078l1.52499,-3.55002c2.54901,0.57901 5.20599,0.89401 7.94202,0.89401c18.59399,0 33.72098,-14.181 33.72098,-31.61099c0,-3.84402 -0.737,-7.52802 -2.08398,-10.93802l82.198,-55.77701c0.56299,1.948 1.12,3.88303 1.67099,5.793c-18.04599,14.121 -29.67899,36.07901 -29.67899,60.716c0,42.50299 34.57901,77.08099 77.082,77.08099s77.08197,-34.578 77.08197,-77.08099s-34.57898,-77.082 -77.08197,-77.082l0,0l0,0l0,0l0,0l0,0zm-58.966,-23.366c1.54498,5.216 3.20001,10.871 4.897,16.70102l-87.58701,59.435c-1.34299,-1.02402 -2.772,-1.95001 -4.27301,-2.77402l2.68201,-6.23999l13.491,-0.12399c2.879,-0.026 5.19,-2.38101 5.164,-5.26001s-2.38,-5.14801 -5.26001,-5.164l-30.15198,0.276c-2.879,0.026 -5.19,2.38101 -5.164,5.26001c0.026,2.862 2.354,5.164 5.211,5.164c0.01599,0 0.03198,0 0.04898,0l8.50803,-0.078l-1.41602,3.297c-3.18799,-0.939 -6.578,-1.448 -10.09299,-1.448c-0.63602,0 -1.26801,0.021 -1.89502,0.05301l-27.952,-68.42102l133.79001,-0.677zm-153.95099,5.36902l28.87299,70.67999c-5.328,4.02798 -9.32001,9.543 -11.26501,15.86499h-2.88898c-2.815,-22.11798 -15.02802,-41.332 -32.51001,-53.505l17.79102,-33.03998l0,0l0,0l0,0l0,0l0,0zm-11.58801,86.54498h-35.013l16.368,-30.397c9.47101,7.43701 16.257,18.13702 18.645,30.397zm-50.131,60.86401c-28.16701,0 -51.082,-22.91501 -51.082,-51.082s22.916,-51.082 51.082,-51.082c5.771,0 11.31599,0.97699 16.494,2.74799l-23.175,43.04001c-1.42401,2.64499 -1.35301,5.84299 0.187,8.422c1.53999,2.578 4.323,4.15701 7.326,4.15701h49.722c-3.54901,24.72699 -24.862,43.797 -50.554,43.797zm274.636,-1.24902c-28.16699,0 -51.082,-22.91498 -51.082,-51.08099c0,-12.41199 4.453,-23.79999 11.841,-32.66098c0.59198,1.98199 1.133,3.771 1.608,5.328c0.944,3.095 1.42398,4.82898 2.22299,6.79599l0.332,0.81699l0.48499,0.741c0.34702,0.556 3.75803,10.15402 12.979,18.06302l0.077,0.05099l0.05103,0.077c6.62698,5.48801 12.34198,7.457 15.952,8.603c3.802,1.16901 9.004,0.569 11.522,-3.33798c1.99899,-2.866 0.23898,-8.66901 -3.54602,-11.41901c-1.48999,-1.04102 -5.784,-4.45001 -11.05798,-9.065c-4.703,-4.19901 -5.08502,-7.414 -7.88901,-12.34799c0.07098,0.159 -0.70499,-2.078 -1.58401,-4.957c-0.90198,-2.95502 -2.07797,-6.901 -3.42398,-11.49701c-0.12799,-0.436 -0.259,-0.883 -0.39001,-1.33099c6.642,-3.16501 14.06702,-4.94202 21.901,-4.94202c28.16702,0 51.08203,22.91501 51.08203,51.082c0.00195,28.16602 -22.91302,51.08099 -51.08002,51.08099l0,0l0,0l0,0l0,0l0,0z" id="svg_1"/>
  <path fill="#ffffff" stroke="param(outline) #000" stroke-width="5" d="m302.05801,241.552c20.01599,-21.782 30.02399,-48.40001 30.02399,-79.854c0,-18.33299 -3.74301,-35.154 -11.228,-50.46c-7.48502,-15.306 -17.367,-27.206 -29.646,-35.701c-12.27902,-8.494 -27.50101,-14.255 -45.66701,-17.283c-12.952,-2.354 -31.707,-3.532 -56.26401,-3.532h-139.52099v369.87498h48.946v-150.37198h94.86599c52.31001,0.00101 88.474,-10.89099 108.49002,-32.673zm-203.35601,-143.181h94.61399c22.20201,0 37.42401,1.09299 45.66701,3.28c12.783,3.533 23.08499,10.807 30.90701,21.824c7.82098,11.018 11.73099,24.26301 11.73199,39.73701c0,21.362 -6.64401,37.92999 -19.93201,49.70399c-13.28801,11.774 -35.743,17.661 -67.36501,17.661h-95.62299v-132.20599l0,0l0,0l0,0l0,0l0,0l0,0z" id="svg_2"/>
 </g>
</svg>