<svg width="83" height="77" xmlns="http://www.w3.org/2000/svg">
 <!-- Created with SVG-edit - http://svg-edit.googlecode.com/ -->
 <g>
  <title>Layer 1</title>
  <metadata id="svg_10">image/svg+xml</metadata>
  <g id="svg_12">
   <g fill="#000000" id="svg_8">
    <path fill="#ffffff" fill-rule="evenodd" stroke-width="1.22297" stroke-miterlimit="4" d="m23.51959,0.14398c-3.70353,-0.14398 -6.89487,1.17194 -8.86297,5.89841l-7.1058,19.53909c-5.17735,1.56759 -7.4313,5.69744 -7.55081,9.08579l0,25.58418l6.82795,0l0,8.60946c-0.33101,8.20541 11.91386,8.52246 12.18786,-0.08549l0.14458,-8.45047l44.2923,0l0.14429,8.45047c0.274,8.60795 12.52988,8.29089 12.19917,0.08549l0,-8.60946l6.81666,0l0,-25.58418c-0.11925,-3.38835 -2.3732,-7.5182 -7.55054,-9.08579l-7.10608,-19.53909c-1.96811,-4.72647 -5.15945,-6.04239 -8.8627,-5.89841l-35.5739,0l0,0zm0.81181,6.7776c0.30952,-0.0018 0.63612,0.0096 0.9674,0.0243l32.12647,0.11008c2.94046,-0.07529 4.18737,0 5.43785,3.053l5.11539,15.14288l-53.28857,-0.07319l5.05976,-14.74003c0.78896,-2.95041 2.41339,-3.50383 4.58171,-3.51703l0,0l0,0l0,0zm-11.18715,25.91385c3.18472,0 5.77133,2.82862 5.77133,6.32586c0,3.49753 -2.58661,6.33815 -5.77133,6.33815c-3.18472,0 -5.77133,-2.84062 -5.77133,-6.33815c0,-3.49723 2.58661,-6.32586 5.77133,-6.32586zm56.64677,0c3.18472,0 5.76031,2.82862 5.76031,6.32586c0,3.49753 -2.57559,6.33815 -5.76031,6.33815c-3.18472,0 -5.77133,-2.84062 -5.77133,-6.33815c0,-3.49723 2.58661,-6.32586 5.77133,-6.32586zm-3.96404,-8.33139l0,0z" id="svg_9"/>
   </g>
  </g>
 </g>
</svg>