<svg width="113" height="160" xmlns="http://www.w3.org/2000/svg">
 <!-- Created with SVG-edit - http://svg-edit.googlecode.com/ -->
 <g>
  <title>Layer 1</title>
  <metadata id="svg_10">image/svg+xml</metadata>
  <g id="svg_15">
   <path fill="param(fill) blue" id="svg_5" d="m56.5867,82.53337c-14.11337,0 -25.56671,-11.52667 -25.56671,-25.74669c0,-14.23332 11.45334,-25.75333 25.56671,-25.75333s25.56665,11.52668 25.56665,25.75333c0,14.21335 -11.45331,25.74669 -25.56665,25.74669m0,-82.53337c-31.25336,0 -56.5867,25.51335 -56.5867,56.99336c0,29.73335 25.62668,68.08669 42.74002,86.76006c6.39331,6.96667 13.84,16.36002 13.84,16.36002s8,-9.44669 14.86002,-16.62003c17.10001,-17.89334 41.72668,-53.82004 41.72668,-86.50005c0,-31.48001 -25.33334,-56.99336 -56.58002,-56.99336"/>
   <rect fill="param(fill) blue" stroke-width="0" x="24" y="23.5" width="67" height="63" id="svg_13"/>
  </g>
  <g id="svg_12">
   <g id="svg_8" fill="#000000" transform="matrix(0.275376 0 0 0.29996 -28.0359 -27.3677)">
    <path id="svg_9" d="m238.24171,156.32484c-13.44867,-0.47969 -25.03784,3.90755 -32.18468,19.66399l-25.80426,65.13956c-18.80127,5.22583 -26.98596,18.9938 -27.41963,30.28986l0,85.29211l24.79474,0l0,28.70206c-1.20154,27.35452 43.2646,28.41171 44.25897,-0.28494l0.52495,-28.17285l160.84271,0l0.5249,28.17285c0.99445,28.69666 45.50098,27.63947 44.29932,0.28494l0,-28.70206l24.75439,0l0,-85.29211c-0.43359,-11.29605 -8.61829,-25.06403 -27.41956,-30.28986l-25.80432,-65.13956c-7.14685,-15.75644 -18.73596,-20.14366 -32.18463,-19.66399l-129.18292,0l0.00002,0zm2.94788,22.59525c1.12488,-0.00589 2.31079,0.0322 3.51331,0.08138l116.66441,0.3665c10.67761,-0.25117 15.20618,0.00029 19.74695,10.17798l18.57584,50.48315l-193.5119,-0.24423l18.3739,-49.13963c2.86517,-9.8367 8.76343,-11.6817 16.63751,-11.72513l0,0l-0.00002,-0.00002zm-40.62456,86.39134c11.56512,0 20.95844,9.42935 20.95844,21.08893c0,11.65955 -9.39331,21.12964 -20.95844,21.12964c-11.56506,0 -20.95845,-9.47009 -20.95845,-21.12964c0,-11.65961 9.39337,-21.08893 20.95845,-21.08893zm205.70731,0c11.56506,-0.00006 20.91809,9.42935 20.91809,21.08893c0,11.65955 -9.35303,21.12964 -20.91809,21.12964c-11.56506,0 -20.95837,-9.47009 -20.95837,-21.12964c0,-11.65958 9.39331,-21.08893 20.95837,-21.08893zm-14.39514,-27.77547l0,0z" stroke-miterlimit="4" stroke-width="1.22297" fill-rule="evenodd" fill="#ffffff"/>
   </g>
  </g>
 </g>
</svg>