<svg width="448" height="388" xmlns="http://www.w3.org/2000/svg">
 <metadata id="metadata18">image/svg+xml</metadata>
 <g>
  <title>Layer 1</title>
  <ellipse cx="214.32699" cy="98.05" rx="20.5" ry="21.5" id="ellipse12" fill="param(fill) blue"/>
  <polygon points="68.827 283.55 166.827 284.197 201.827 284.428 371.827 285.55 415.827 368.55 196.827 368.55 25.827 368.55" id="polygon14" fill="param(fill) blue"/>
  <polygon points="68.827 369.55 103.827 280.597 135.827 279.55 111.827 369.55" id="polygon16" fill="#ffffff"/>
  <polygon points="274.576 282.03 238.057 284.547 244.645 368.309 287.555 368.568" id="polygon18" fill="#ffffff"/>
  <polygon points="328.827 370.55 305.827 280.55 338.827 280.55 369.827 370.55" id="polygon20" fill="#ffffff"/>
  <polygon points="166.827 281.197 201.827 281.436 196.827 368.55 156.827 368.55" id="polygon22" fill="#ffffff"/>
  <path d="m204.82701,168.55c-5.71201,5.077 -49.284,45.52602 -55.46899,35.21901c-1.88901,-3.147 -4.961,-11.93301 -0.75301,-14.737c4.909,-3.272 9.703,-6.718 14.535,-10.10101c5.71399,-4 11.42798,-8 17.142,-11.99899c3.717,-2.60201 5.51199,-8.793 8.36,-12.41901c7.99899,-10.181 17.82901,-18.362 25.685,-28.463c4.34,-5.58 8.63599,-6.42599 15.35199,-8.944c6.267,-2.34999 9.14102,2.185 14.14801,6.444c8.78201,7.47 16.18401,15.881 23.66798,24.612c6.70898,7.827 16.711,14.77501 19.461,24.86c2.69699,9.892 5.92398,20.272 6.87103,30.52701c0.51099,5.52899 0.521,9.49298 -4.888,11.29599c-6.87802,2.293 -6.15405,-0.35199 -9.58105,-4.92099c-5.646,-7.52802 -1.34198,-18.81302 -5.53094,-27.375c-2.604,-5.32401 -6.18802,-7.09401 -11.37604,-9.688c-4.03799,-2.019 -7.57997,-7.964 -10.62398,-11.312c-0.58499,13.746 -1.17001,27.491 -1.755,41.237c-0.452,10.61899 5.73599,17.612 7.01399,27.83701c1.28003,10.23599 5.69598,17.31401 11.38397,25.58798c9.59406,13.95401 19.18701,27.90701 28.77905,41.86002c5.33496,7.75998 13.24896,15.08298 6.578,24.478c-3.638,5.12299 -6.77905,4 -12.78101,4c-5.46204,0 -8.49103,-3.521 -11.58405,-7.95801c-14.07599,-20.19699 -29.35599,-40.48499 -40.40997,-62.59299c-4.40802,-8.81601 -8.81601,-17.633 -13.22501,-26.44901c-8.067,10.64798 -16.134,21.297 -24.20099,31.944c-2.88603,3.81 -6.35202,7.22598 -9.54701,10.77499c-0.99002,1.10001 0.134,3.41199 -0.502,4.84399c-1.29901,2.923 -2.59802,5.84702 -3.897,8.77002c-5.545,12.478 -10.989,24.94098 -17.095,37.15198c-1.73799,3.47702 -10.149,2.66702 -13.75699,2.51501c-6.94601,-0.293 -10,-0.19299 -10,-7.96301c0,-3.388 0.09499,-11.745 1.883,-14.29898c3.095,-4.422 5.959,-8.384 8.136,-13.28101c5.121,-11.52103 9.088,-24.93301 16.68599,-35.06303c6.56201,-8.74899 13.34801,-17.319 19.202,-26.56198c4.32101,-6.82199 8.642,-13.646 12.96301,-20.46899c2.737,-4.321 1.84399,-6.79601 1.405,-12.06302c-0.76001,-9.09798 -1.51801,-18.198 -2.276,-27.299" id="path24" stroke-miterlimit="4" stroke-width="1.5" stroke="#ffffff" fill="param(fill) blue"/>
 </g>
</svg>