<svg width="113" height="160" xmlns="http://www.w3.org/2000/svg">
 <!-- Created with SVG-edit - http://svg-edit.googlecode.com/ -->
 <g>
  <title>Layer 1</title>
  <metadata id="svg_10">image/svg+xml</metadata>
  <g id="svg_15">
   <path d="m56.5867,82.5334c-14.1134,0 -25.5667,-11.5267 -25.5667,-25.7467c0,-14.2333 11.4533,-25.7534 25.5667,-25.7534s25.5667,11.5267 25.5667,25.7534c0,14.2133 -11.4534,25.7467 -25.5667,25.7467m0,-82.5334c-31.2534,0 -56.5867,25.5133 -56.5867,56.9934c0,29.7333 25.6267,68.0866 42.74,86.75961c6.3933,6.96701 13.84,16.36 13.84,16.36s8,-9.446 14.86,-16.62001c17.1,-17.893 41.727,-53.8196 41.727,-86.4996c0,-31.4801 -25.3336,-56.9934 -56.5803,-56.9934" id="svg_5" fill="param(fill) blue"/>
   <rect id="svg_13" height="63" width="67" y="23.5" x="24" stroke-width="0" fill="param(fill) blue"/>
  </g>
  <metadata id="svg_40">image/svg+xml</metadata>
  <defs>
   <clipPath clipPathUnits="userSpaceOnUse" id="svg_38">
    <rect id="svg_39" width="83.24303" height="74.42258" x="940.48096" y="408.25967" rx="2.5" ry="2.5" stroke-dashoffset="0" stroke-miterlimit="4" stroke-width="0" stroke="#ffffff" fill="none"/>
   </clipPath>
  </defs>
  <path d="m581.98712,-51.49241l5.06848,0l-0.34412,-9.79675l5.31848,1.69044c0.73438,0.36646 1.46918,-0.80915 1.03204,-1.53678l-8.07129,-14.21493c-0.22955,-0.34576 -0.70911,-0.49947 -1.06372,0l-8.10297,14.17653c-0.3233,0.58907 0.29211,1.71601 0.90747,1.53673l5.59979,-1.49833l-0.34418,9.64309z" id="svg_34" fill="#ffffff"/>
  <g id="svg_25" transform="matrix(0.360384 0 0 0.418409 577.221 -46.5426)">
   <g id="svg_31">
    <rect id="svg_33" width="99.49969" height="189.76569" x="-1459.34921" y="151.98562" ry="2.5" rx="2.5" fill="#ffffff"/>
    <rect id="svg_32" width="73.86951" height="59.25153" x="-1446.48537" y="176.20495" rx="3" ry="3" fill="param(fill) blue"/>
   </g>
   <g id="svg_27">
    <rect id="svg_30" width="7.21153" height="30.6003" x="-1510.20862" y="154.37542" rx="2.5" ry="2.5" fill-rule="nonzero" fill="#ffffff"/>
    <rect id="svg_29" width="7.21153" height="30.6003" x="-1483.01932" y="154.08309" rx="2.5" ry="2.5" fill-rule="nonzero" fill="#ffffff"/>
    <path d="m-1517.61731,181.85699l48.53003,0l0,11.5l-9.93994,30.405l-28.4502,0.19499l-10.13989,-31.37999l0,-10.72z" id="svg_28" fill="#ffffff"/>
   </g>
   <path id="svg_26" d="m-1458.57727,238.20399c-32.34009,0 -71.39014,30.347 -71.39014,80.47002c0,12.203 8.2002,25.15198 20.75,25.15198c12.56006,0 20.73999,-13.56299 20.73999,-25.73798l0,-99.60901l-10.0498,0l0.03979,99.81598c0,6.89102 -4.45996,15.60803 -10.45996,15.60803c-6.65991,0 -11.22998,-8.14801 -11.22998,-15.229c0,-40.849 30.40015,-70.42601 61.6001,-70.42601l0,-10.04401l0,0z" stroke-miterlimit="4" stroke-width="0" fill="#ffffff"/>
  </g>
 </g>
</svg>