<svg width="101" height="141" xmlns="http://www.w3.org/2000/svg">
 <!-- Created with SVG-edit - http://svg-edit.googlecode.com/ -->

 <g>
  <title>Layer 1</title>

  <metadata id="svg_31">image/svg+xml</metadata>
  <g transform="matrix(16.1763 0 0 -16.1763 69.4822 21.1586)" id="svg_25">
   <path fill="param(fill) blue" fill-rule="nonzero" id="svg_26" d="m-2.0819,0.653c0.004,0.358 -0.291,0.655 -0.65,0.651c-0.368,0.004 -0.664,-0.293 -0.663,-0.651c-0.001,-0.367 0.295,-0.661 0.663,-0.662c0.359,0.001 0.654,0.295 0.65,0.662"/>
  </g>
  <g transform="matrix(16.1763 0 0 -16.1763 100.065 79.3564)" id="svg_23">
   <path fill="param(fill) blue" fill-rule="nonzero" id="svg_24" d="m-2.0819,0.653l-2.104,2.552c-0.109,0.162 -0.718,0.23 -0.976,0.023l-1.024,-1.862l0.252,-1.574c0.256,-0.411 0.764,0.005 0.622,0.229l-0.172,1.115l0.423,0.816l-0.021,-2l-0.92,-2.873c-0.182,-0.61 0.717,-0.864 0.897,-0.277l1.138,3.173l-0.011,1.614l-0.53,0.626c-0.025,0.03 -0.021,0.076 0.01,0.102c0.031,0.025 0.076,0.022 0.102,-0.009l1.75,-2.069c0.281,-0.385 0.845,0.024 0.564,0.414"/>
  </g>
  <g transform="matrix(16.1763 0 0 -16.1763 87.048 136.62)" id="svg_21">
   <path fill="param(fill) blue" fill-rule="nonzero" id="svg_22" d="m-2.0819,0.653l-1.033,2.571l-0.422,-1.181l0.603,-1.735c0.245,-0.571 1.102,-0.237 0.852,0.345"/>
  </g>
  <g transform="matrix(16.1763 0 0 -16.1763 131.376 146.163)" id="svg_19">
   <path fill="param(fill) blue" fill-rule="nonzero" id="svg_20" d="m-2.0819,0.653c0.002,-0.002 0.004,-0.005 0.004,-0.006c0.041,-0.049 0.113,-0.054 0.162,-0.014c0.043,0.038 0.051,0.103 0.022,0.15l-1.948,3.381c-0.002,0.002 -0.004,0.004 -0.006,0.007c-0.039,0.046 -0.111,0.053 -0.16,0.012c-0.043,-0.037 -0.047,-0.099 -0.019,-0.149l1.945,-3.381z"/>
  </g>
 </g>
</svg>