<svg width="113" height="160" xmlns="http://www.w3.org/2000/svg">
 <!-- Created with SVG-edit - http://svg-edit.googlecode.com/ -->
 <g>
  <title>Layer 1</title>
  <metadata id="svg_10">image/svg+xml</metadata>
  <g id="svg_15">
   <path fill="param(fill) green" id="svg_5" d="m56.5867,82.5334c-14.1134,0 -25.5667,-11.5267 -25.5667,-25.7467c0,-14.2333 11.4533,-25.7534 25.5667,-25.7534s25.5667,11.5267 25.5667,25.7534c0,14.2133 -11.4534,25.7467 -25.5667,25.7467m0,-82.5334c-31.2534,0 -56.5867,25.5133 -56.5867,56.9934c0,29.7333 25.6267,68.0866 42.74,86.75961c6.3933,6.96701 13.84,16.36 13.84,16.36s8,-9.446 14.86,-16.62001c17.1,-17.893 41.727,-53.8196 41.727,-86.4996c0,-31.4801 -25.3336,-56.9934 -56.5803,-56.9934"/>
   <rect fill="param(fill) green" stroke-width="0" x="24" y="23.5" width="67" height="63" id="svg_13"/>
  </g>
  <metadata id="svg_40">image/svg+xml</metadata>
  <path fill="#ffffff" id="svg_34" d="m581.98712,-51.49241l5.06848,0l-0.34412,-9.79675l5.31848,1.69044c0.73438,0.36646 1.46918,-0.80915 1.03204,-1.53678l-8.07129,-14.21493c-0.22955,-0.34576 -0.70911,-0.49947 -1.06372,0l-8.10297,14.17653c-0.3233,0.58907 0.29211,1.71601 0.90747,1.53673l5.59979,-1.49833l-0.34418,9.64309z"/>
  <metadata id="svg_43">image/svg+xml</metadata>
  <metadata id="svg_44">image/svg+xml</metadata>
 </g>
 <g>
  <title>Layer 2</title>
  <path stroke="#004b00" fill="#ffffff" stroke-width="0" stroke-miterlimit="4" id="svg_21" d="m83.20123,90.82221c-6.66374,-1.27148 -11.82816,-5.70375 -14.64135,-12.56676c-1.12417,-2.74235 -1.36746,-4.75089 -1.36765,-11.29195l-0.00018,-4.22503l1.08801,-2.54757c2.14186,-5.01522 4.10601,-7.82727 7.15607,-10.24345c1.19079,-0.94322 1.40876,-1.30426 1.3055,-2.16278c-0.09408,-0.79185 -0.67687,-2.56006 -0.89712,-2.72417c-0.37321,-0.27864 -0.87111,-0.09001 -1.8531,0.70219c-1.33611,1.07847 -2.51782,2.46218 -3.31819,3.88659c-0.35394,0.62993 -1.77533,3.78207 -3.1587,7.00479c-1.38332,3.22266 -2.89715,6.6035 -3.36398,7.51284c-2.26749,4.41684 -4.39082,6.62946 -7.10918,7.40799c-0.29896,0.08569 -1.39294,0.21272 -2.43106,0.28252c-1.03816,0.06976 -2.00463,0.20035 -2.14778,0.29028c-0.16549,0.10397 -0.33958,0.49847 -0.47799,1.08321c-0.17857,0.75392 -0.2764,0.93708 -0.54292,1.01521c-0.43211,0.1275 -0.84763,-0.20832 -1.30301,-1.05357c-0.55899,-1.03742 -0.91702,-1.21548 -2.59575,-1.29089l-1.44077,-0.06472l-0.74019,2.56722c-1.31651,4.56694 -2.60435,7.23029 -4.78858,9.90167c-3.39549,4.15392 -7.56145,6.17519 -13.43622,6.52094c-3.67979,0.21642 -7.12448,-0.94374 -10.435,-3.51458c-4.08496,-3.17248 -6.62964,-7.65142 -7.73254,-13.61201c-0.25875,-1.39874 -0.29566,-2.02612 -0.29566,-5.02275c0,-2.9562 0.03817,-3.62204 0.27905,-4.87018c0.60902,-3.15497 1.52504,-5.64237 2.91943,-7.92744c0.42966,-0.70424 0.87056,-1.50001 0.97973,-1.76862c0.19073,-0.46936 0.18393,-0.51281 -0.17662,-1.12353l-0.37498,-0.63528l0.62585,-0.6653c0.96511,-1.02581 2.68338,-2.30676 4.68076,-3.48907c3.25004,-1.92407 5.32092,-2.43956 9.27072,-2.30761c4.34132,0.14495 7.47118,1.11667 10.11103,3.13931c1.71454,1.31369 1.73189,1.31901 2.4446,0.75691c0.93859,-0.74029 2.22199,-1.99596 2.22199,-2.17406c0,-0.27567 -2.22037,-8.22483 -2.33746,-8.36862c-0.09857,-0.12092 -1.71454,0.02416 -3.48302,0.31265l-0.57053,0.09312l0.07006,-0.90694c0.03858,-0.49873 0.19032,-1.18349 0.33719,-1.52166c0.48933,-1.12613 1.02736,-1.27455 7.33709,-2.02398c3.3669,-0.39985 4.0124,-0.39932 4.35547,0.00347c0.52678,0.61852 0.67922,1.77886 0.3141,2.3908c-0.26174,0.43882 -0.9609,0.64571 -2.68961,0.79594c-1.12993,0.09813 -1.46941,0.18238 -1.66621,0.41339c-0.41536,0.48767 -0.35895,1.38251 0.22736,3.60667c0.33599,1.27456 4.12789,13.57484 5.21299,16.90998l0.64374,1.97844l0.59127,0.17698c1.15041,0.34416 4.45444,0.70271 6.62954,0.71933c1.85579,0.01417 2.31538,-0.02881 2.91162,-0.27243c0.88273,-0.3606 1.72992,-1.34495 2.54821,-2.9607c1.32828,-2.62283 10.5803,-25.10874 12.4862,-30.34707c0.80229,-2.20402 0.84665,-2.93748 0.19884,-3.28401c-0.52772,-0.2822 -1.29254,-0.21289 -3.23888,0.29349c-2.06007,0.53596 -3.2615,0.60907 -3.75605,0.22864c-0.44817,-0.34486 -0.45362,-1.3224 -0.01173,-2.08615c0.67918,-1.17335 3.43419,-2.36277 5.84792,-2.52449c2.09174,-0.14024 2.98656,0.29506 4.18195,2.0342c0.60569,0.88144 0.839,0.96847 1.60072,0.59497c0.24168,-0.11863 1.22597,-0.35305 2.18734,-0.52098c5.00489,-0.87463 6.67142,-0.49003 8.7578,2.02122c1.69785,2.04301 1.91203,2.97425 1.29098,5.60993c-0.71204,3.02035 -1.33688,4.31802 -2.9552,6.1384c-1.99691,2.24531 -4.59877,4.10838 -7.74438,5.5443l-1.87988,0.85809l0.01299,0.52989c0.0176,0.73167 0.86576,2.7539 1.25887,3.00065c0.26464,0.16623 0.47647,0.15303 1.33614,-0.08357c1.47914,-0.40705 6.88859,-0.41037 8.41054,-0.00512c3.9005,1.03864 6.63316,2.84999 9.25718,6.1365c2.60262,3.25857 3.94334,6.18846 4.69894,10.26982c0.25545,1.37862 0.29372,2.02874 0.29829,5.08141c0.00384,3.0382 -0.03365,3.72152 -0.2853,5.1746c-0.72579,4.18991 -1.80415,6.77509 -4.02589,9.6503c-2.44815,3.16797 -6.43889,6.34581 -8.90618,7.09108c-2.27454,0.68781 -5.66951,0.88358 -7.90732,0.45709l0,0l0,0l0.00004,0.00004l0.00005,0l-0.00001,0zm-52.75858,-6.44724c3.59682,-1.16462 6.30804,-3.51453 8.19173,-7.0983c1.28373,-2.44244 2.10369,-5.3329 1.73967,-6.13165c-0.22486,-0.49325 -1.42398,-0.75297 -7.181,-1.55524c-2.97891,-0.41512 -5.54555,-0.83551 -5.7036,-0.93431c-0.88581,-0.55316 -2.78504,-2.39336 -6.12362,-5.93318c-3.17932,-3.37092 -3.81896,-3.9376 -4.44533,-3.9376c-0.63821,0 -1.29626,1.1606 -2.20072,3.88099c-0.75892,2.28278 -0.8589,2.95974 -0.85415,5.78342c0.00474,2.83445 0.14532,3.73234 0.95644,6.11037c1.22819,3.60165 3.69387,6.7606 6.64885,8.5188c1.03036,0.61328 2.87327,1.3622 3.86617,1.57053c1.08943,0.22901 4.04189,0.07096 5.10557,-0.27386l0,0l-0.00003,0l0.00001,0.00002l0,-0.00001zm58.37682,-0.16886c2.6577,-0.63572 4.50851,-1.92253 6.83428,-4.74836c1.85159,-2.25027 2.5315,-3.63578 3.12344,-6.36504c1.02025,-4.70401 0.12852,-10.06023 -2.30741,-13.85595c-0.8933,-1.39134 -1.48444,-2.04507 -3.24354,-3.58595c-2.4229,-2.12303 -3.37199,-2.47662 -6.98724,-2.60431c-1.3958,-0.04932 -2.75941,-0.04057 -3.03094,0.01928l-0.49485,0.10892l0.07802,0.76945c0.14148,1.40701 2.33339,8.50725 3.28862,10.65755c0.29675,0.66761 0.69138,1.26017 1.13573,1.70547c1.11049,1.11381 1.25887,2.50082 0.44587,4.17101c-0.4566,0.93979 -1.11969,1.38696 -2.06194,1.39099c-0.97741,0.0042 -1.52576,-0.25249 -1.87759,-0.87892c-0.43443,-0.77438 -0.69064,-2.19602 -0.56596,-3.14999c0.12236,-0.93909 -0.08032,-1.92707 -0.8895,-4.33754c-1.1036,-3.28912 -3.12039,-8.39016 -3.39568,-8.58989c-0.16217,-0.11823 -1.3568,1.07477 -2.75559,2.75274c-2.92155,3.50415 -3.76283,6.0045 -3.78429,11.23998c-0.0107,2.60619 0.0069,2.79703 0.34113,3.92094c1.86152,6.24514 5.75362,10.38554 10.76691,11.45412c1.45619,0.30979 3.91579,0.27566 5.38039,-0.07455l0,0l0.00014,0.00005l0,-0.00002l0,0.00001zm-43.14563,-24.10076c0,-0.19458 -0.13884,-0.82812 -0.30843,-1.40779c-0.33963,-1.16123 -2.40379,-7.25417 -2.49373,-7.36172c-0.08192,-0.09786 -1.60516,1.70152 -1.60516,1.89617c0,0.09024 0.23753,0.43478 0.52786,0.76571c0.76124,0.86749 1.58475,2.38466 2.40937,4.43862c0.3961,0.98687 0.78689,1.84445 0.86839,1.906c0.31217,0.23569 0.60175,0.12151 0.60175,-0.23735l0,0.00037l-0.00005,0z"/>
  <rect fill="none" stroke="#004b00" stroke-width="0" stroke-dasharray="null" stroke-linejoin="null" stroke-linecap="null" x="72" y="57.5" width="1" height="1" id="svg_3"/>
 </g>
</svg>